<?xml version="1.0" encoding="utf-8"?>
<!-- Generator: Adobe Illustrator 16.0.0, SVG Export Plug-In . SVG Version: 6.00 Build 0)  -->
<!DOCTYPE svg PUBLIC "-//W3C//DTD SVG 1.1 Tiny//EN" "http://www.w3.org/Graphics/SVG/1.1/DTD/svg11-tiny.dtd">
<svg version="1.1" baseProfile="tiny" id="Layer_1" xmlns="http://www.w3.org/2000/svg" xmlns:xlink="http://www.w3.org/1999/xlink"
	 x="0px" y="0px" width="24px" height="24px" viewBox="0 0 24 24" xml:space="preserve">
<g>
	<path d="M20.275,8.315c0-0.063-0.014-0.121-0.039-0.173c-0.023-0.322-0.054-0.373-0.081-0.418c-0.073-0.12-0.876-0.933-1.537-1.594
		l-3.901-3.9c-1.452-1.451-1.56-1.516-1.59-1.533c-0.093-0.058-0.199-0.124-2.412-0.124H6.839c-0.612,0-2.05,0.002-2.176,0.021
		c-0.194,0.024-0.483,0.204-0.6,0.32c-0.102,0.104-0.237,0.28-0.285,0.439C3.743,1.473,3.725,2.258,3.725,3.688v16.624
		c0,0.339,0.001,2.036,0.02,2.18c0.026,0.191,0.206,0.479,0.319,0.594c0.109,0.109,0.287,0.241,0.444,0.289
		c0.148,0.043,1.35,0.053,2.332,0.053H17.16c0.083,0,2.022-0.001,2.177-0.021c0.195-0.024,0.485-0.207,0.599-0.321
		c0.102-0.103,0.238-0.278,0.286-0.438c0.013-0.043,0.053-0.176,0.053-2.335V10.133c0-0.809-0.009-1.336-0.023-1.684
		C20.267,8.407,20.275,8.362,20.275,8.315z M12.929,1.593c0.253,0.243,0.678,0.659,1.223,1.204l3.901,3.9
		c0.542,0.541,0.957,0.965,1.201,1.218h-4.725c-0.882,0-1.6-0.718-1.6-1.6V1.593z M19.475,20.312c0,1.114-0.016,2.029-0.012,2.084
		c-0.01,0.021-0.051,0.081-0.093,0.123c-0.03,0.027-0.134,0.089-0.121,0.093c-0.088,0.006-0.882,0.015-2.089,0.015H6.839
		c-0.997,0-1.78-0.013-2.014-0.013c-0.041,0-0.064,0.001-0.07,0.001c-0.02-0.009-0.081-0.05-0.122-0.091
		c-0.029-0.033-0.09-0.168-0.094-0.124c-0.007-0.101-0.015-0.963-0.015-2.088V3.688c0-1.169,0.018-2.043,0.013-2.086
		c0.01-0.02,0.05-0.08,0.09-0.12c0.031-0.028,0.135-0.088,0.125-0.094c0.096-0.007,0.921-0.014,2.086-0.014h3.875
		c0.566,0,1.051,0.007,1.414,0.017v4.925c0,1.323,1.077,2.4,2.4,2.4h4.93c0.01,0.363,0.017,0.85,0.017,1.417V20.312z"/>
	<path d="M16.021,15.621H12.4V12c0-0.221-0.179-0.4-0.4-0.4s-0.4,0.18-0.4,0.4v3.621H7.979c-0.221,0-0.4,0.18-0.4,0.4
		s0.179,0.4,0.4,0.4H11.6v3.62c0,0.221,0.179,0.4,0.4,0.4s0.4-0.18,0.4-0.4v-3.62h3.622c0.221,0,0.4-0.18,0.4-0.4
		S16.242,15.621,16.021,15.621z"/>
</g>
</svg>
