<?xml version="1.0" encoding="iso-8859-1"?>
<!-- Generator: Adobe Illustrator 19.0.0, SVG Export Plug-In . SVG Version: 6.00 Build 0)  -->
<svg version="1.1" id="Capa_1" xmlns="http://www.w3.org/2000/svg" xmlns:xlink="http://www.w3.org/1999/xlink" x="0px" y="0px"
	 viewBox="0 0 106.582 106.582" style="enable-background:new 0 0 106.582 106.582;" xml:space="preserve">
<g id="_x0A_file01">
	<g>
		<path style="fill-rule:evenodd;clip-rule:evenodd;" d="M95.769,45.737c-0.002-0.787,0.009-1.59-0.141-2.357
			c-0.566-2.893-0.563-5.816-0.568-8.741c-0.008-3.938,0.061-7.878-0.01-11.815c-0.035-1.902-0.193-3.824-0.521-5.695
			c-0.262-1.503-1.125-2.671-2.824-2.95c-1.105-0.184-2.198-0.449-3.295-0.687c-0.977-0.209-1.892-0.398-2.955-0.128
			c-1.374,0.35-1.921-0.121-2.574-1.534c-0.188-0.406-0.388-0.816-0.515-1.244c-0.577-1.933-1.931-2.645-3.851-2.527
			c-0.673,0.041-1.35,0.056-2.023,0.056c-0.56-0.002-1.138,0.035-1.679-0.079c-4.704-0.991-4.885-1.015-8.596-0.728
			c-0.221,0.017-0.485,0.056-0.664-0.039c-0.27-0.141-0.659-0.366-0.688-0.596c-0.113-0.888-0.087-1.793-0.145-2.689
			c-0.088-1.426-0.618-2.605-1.925-3.346C62.519,0.482,62.309,0.214,62.069,0h-0.676c-0.289,0.629-0.889,0.627-1.431,0.635
			c-2.025,0.028-4.05,0.002-6.075,0.026c-1.237,0.016-2.482,0-3.705,0.152c-1.295,0.158-2.235,1.237-2.35,2.497
			c-0.049,0.56-0.057,1.127-0.023,1.687c0.09,1.439-0.036,1.914-1.877,1.966c-1.568,0.042-3.126,0.31-4.694,0.399
			c-1.797,0.102-3.605,0.042-5.397,0.19c-2.009,0.164-3.699,0.931-4.49,2.997c-0.2,0.522-0.479,1.017-0.721,1.525
			c-0.43,0.913-1.166,1.281-2.157,1.33c-3.92,0.184-7.837,0.406-11.756,0.615c-0.449,0.025-0.924-0.022-1.34,0.111
			c-1.323,0.423-2.487,1.044-2.75,2.616c-0.128,0.774-0.42,1.53-0.468,2.306c-0.242,3.812-0.768,7.602-0.7,11.441
			c0.075,4.275-0.078,8.553-0.075,12.828c0.015,14.968,0.043,29.936,0.102,44.903c0.008,2.021,0.182,4.04,0.352,6.055
			c0.088,1.028,0.14,2.025-0.333,2.969c-0.957,1.912-0.695,3.952-0.637,5.964c0.019,0.714,0.527,1.273,1.247,1.394
			c3.653,0.6,7.28,1.398,11.01,1.402c13.168,0.008,26.336,0.038,39.503,0.025c4.951-0.004,9.914,0.077,14.848-0.231
			c2.622-0.164,5.171-0.138,7.667,0.517c1.849,0.484,3.523,0.247,5.275-0.303c2.547-0.799,4.026-2.464,4.141-5.107
			c0.074-1.659,0.827-3.301,0.181-4.983c0.793-1.958,0.302-3.995,0.36-5.998c0.092-3.146-0.051-6.315,0.241-9.442
			c0.335-3.597,0.321-7.185,0.352-10.783c0.017-2.249,0.093-4.501,0.095-6.751C95.797,57.213,95.786,51.475,95.769,45.737z
			 M60.769,15.541c1.46-0.022,2.918-0.006,3.955-0.006c4.567,0.222,8.709,0.422,12.852,0.627c0.6,0.03,1.067,0.287,1.356,0.833
			c0.364,0.695,0.754,1.378,1.099,2.08c0.311,0.635,0.085,1.086-0.555,1.272c-1.866,0.54-3.787,0.594-5.676,0.368
			c-1.582-0.19-3.106-0.079-4.677,0.024c-2.906,0.188-5.829,0.137-8.744,0.16c-0.48,0.002-0.87-0.274-0.886-0.799
			c-0.033-1.119-0.052-2.24-0.006-3.358C59.521,15.903,59.918,15.553,60.769,15.541z M52.281,5.138
			c0.079-0.195,0.581-0.33,0.878-0.309c2.012,0.131,4.02,0.301,6.026,0.482c0.536,0.048,0.831,0.633,0.745,1.287
			c-0.074,0.554-0.451,0.77-0.915,0.787c-1.007,0.038-2.017,0.011-3.027,0.011V7.47c-1.01,0-2.018,0.022-3.027-0.009
			c-0.467-0.016-0.922-0.251-0.943-0.753C51.995,6.184,52.083,5.62,52.281,5.138z M52.153,19.334
			c0.109-0.128,0.399-0.216,0.551-0.164c0.163,0.056,0.332,0.283,0.376,0.465c0.189,0.803-0.26,1.331-1.157,1.194
			c-0.065-0.172-0.263-0.435-0.224-0.656C51.751,19.874,51.947,19.573,52.153,19.334z M43.505,19.348
			c0.055,0.087,0.129,0.167,0.164,0.264c0.035,0.095,0.035,0.205,0.048,0.309c-0.014,0.102-0.014,0.211-0.048,0.306
			c-0.035,0.092-0.109,0.167-0.164,0.252c-0.109-0.111-0.325-0.243-0.307-0.329C43.254,19.872,43.396,19.611,43.505,19.348z
			 M90.393,43.281c-0.141,3.024-0.735,6.023-0.698,9.071c0.023,2.026-0.089,4.054,0.505,6.033c0.124,0.423,0.142,0.89,0.142,1.335
			c-0.014,5.402,0.201,10.818-0.127,16.203c-0.32,5.29-0.332,10.57-0.296,15.857c0.012,1.905,0.271,3.81,0.388,5.714
			c0.041,0.65-0.339,1.052-0.976,1.131c-0.336,0.043-0.676,0.097-1.009,0.085c-4.515-0.178-8.984,0.473-13.475,0.741
			c-3.585,0.214-7.156,0.671-10.735,0.993c-1.008,0.091-2.024,0.11-3.036,0.124c-5.968,0.079-11.936,0.1-17.901,0.237
			c-2.581,0.06-5.157,0.362-7.736,0.524c-2.253,0.143-4.498,0.156-6.697-0.5c-0.945-0.279-1.038-0.303-0.723-1.371
			c0.221-0.745,0.19-1.334-0.442-1.783c-0.608-0.43-1.326-0.419-1.916-0.042c-0.647,0.414-1.19,0.995-1.778,1.503
			c-0.333,0.289-0.625,0.722-1.009,0.827c-0.358,0.103-0.867-0.056-1.204-0.266c-0.179-0.112-0.273-0.65-0.162-0.878
			c0.39-0.805,0.915-1.544,1.33-2.337c0.257-0.492,0.455-1.026,0.602-1.562c0.153-0.563-0.355-1.4-0.951-1.635
			c-0.586-0.231-1.128-0.06-1.532,0.375c-0.533,0.576-0.992,1.225-1.501,1.825c-0.809,0.945-1.051,1.064-1.219,0.635
			c-0.237-0.606,0.088-1.062,0.355-1.556c1.02-1.877,2.068-3.74,2.996-5.662c0.382-0.785,0.566-1.692,0.681-2.564
			c0.047-0.36-0.259-0.833-0.529-1.147c-0.248-0.286-1.217-0.061-1.534,0.328c-0.424,0.519-0.793,1.086-1.192,1.626
			c-0.133,0.182-0.274,0.356-0.436,0.51c-0.048,0.042-0.216,0.028-0.271-0.023c-0.159-0.145-0.413-0.324-0.408-0.482
			c0.016-0.431,0.057-0.899,0.245-1.273c1.056-2.114,2.17-4.198,3.233-6.307c0.456-0.903,0.853-1.835,1.243-2.769
			c0.238-0.577,0.017-1.1-0.33-1.573c-0.447-0.609-1.212-0.799-1.754-0.347c-0.598,0.494-1.112,1.09-1.686,1.616
			c-0.133,0.124-0.438,0.249-0.53,0.184c-0.155-0.106-0.276-0.366-0.284-0.567c-0.056-1.776-0.525-3.558,0.042-5.329
			c-0.211-4.831,0.171-9.673-0.33-14.503c-0.221-2.122-0.217-4.271-0.235-6.409c-0.03-3.374-0.025-6.746-0.486-10.104
			c-0.089-0.65-0.055-1.366,0.125-1.995c1.098-3.864,0.913-7.777,0.627-11.717c-0.17-2.352-0.125-4.723-0.133-7.085
			c-0.002-0.793,0.49-1.277,1.255-1.284c1.573-0.014,3.165-0.104,4.722,0.079c1.291,0.154,2.694-0.072,3.86,0.768
			c-0.3,1.183-0.596,2.365-0.901,3.548c-0.083,0.324-0.218,0.639-0.283,0.967c-0.13,0.656,0.249,1.377,0.885,1.661
			c1.356,0.604,2.788,0.809,4.269,0.793c3.041-0.035,6.082-0.041,9.122-0.031c2.023,0.006,4.046,0.059,6.07,0.091
			c0,0.059-0.001,0.12-0.002,0.18c3.152,0,6.307-0.05,9.458,0.016c2.809,0.058,5.612,0.262,8.422,0.368
			c1.236,0.048,2.492,0.146,3.712-0.012c4.26-0.556,8.538-0.428,12.812-0.432c1.14-0.002,2.198-0.272,3.294-0.561
			c2.075-0.542,2.272-1.947,2.271-3.896c0-0.33-0.197-0.664-0.186-0.992c0.029-0.847-1.115-1.541-0.312-2.475
			c0.993-0.016,1.988-0.073,2.978-0.016c0.247,0.014,0.623,0.362,0.683,0.619c0.255,1.088,0.534,2.195,0.589,3.307
			C90.706,28.87,90.731,36.08,90.393,43.281z M86.088,54.967c-0.755-0.176-1.541-0.303-2.316-0.309
			c-3.826-0.037-7.654-0.039-11.482-0.021c-0.896,0.004-1.848-0.046-2.677,0.226c-1.761,0.573-3.554,0.492-5.347,0.583
			c-0.896,0.046-1.79,0.133-2.684,0.222c-3.463,0.346-6.915,0.858-10.384,1.008c-4.158,0.175-8.327,0.04-12.493,0.04v0.027
			c-4.274,0-8.55-0.004-12.824,0.004c-0.336,0-0.705-0.014-0.992,0.121c-0.271,0.128-0.539,0.405-0.657,0.682
			c-0.205,0.477,0.082,0.894,0.455,1.142c1.092,0.722,2.354,0.645,3.592,0.702c0.896,0.043,1.125,0.303,1.244,1.229
			c0.071,0.556,0.042,1.136,0.193,1.667c0.16,0.56,0.61,0.951,1.21,1.036c0.631,0.088,1.16-0.265,1.377-0.774
			c0.3-0.704,0.4-1.493,0.583-2.245c0.138-0.577,0.584-0.862,1.256-0.793c0.488,0.05,0.833,0.256,0.91,0.795
			c0.109,0.77,0.176,1.555,0.375,2.302c0.161,0.6,0.905,0.943,1.653,0.91c0.612-0.027,1.094-0.293,1.316-0.872
			c0.201-0.522,0.314-1.078,0.488-1.612c0.274-0.851,0.52-1.025,1.446-1.058c0.337-0.012,0.675-0.01,1.012-0.006
			c2.672,0.023,2.175,0.123,2.328,2.167c0.032,0.441,0.074,0.91,0.254,1.3c0.119,0.259,0.467,0.49,0.756,0.569
			c0.473,0.129,0.879-0.11,1.097-0.552c0.146-0.297,0.276-0.629,0.304-0.955c0.048-0.552-0.009-1.111,0.011-1.667
			c0.022-0.609,0.438-1.088,0.999-1.159c0.334-0.043,0.671-0.053,1.011-0.053c1.36,0,1.616,0.533,1.632,1.592
			c0.012,0.781,0.056,1.578,0.22,2.339c0.122,0.573,0.618,0.955,1.213,1.019c0.616,0.065,1.077-0.312,1.363-0.816
			c0.217-0.386,0.366-0.829,0.448-1.266c0.103-0.548,0.093-1.117,0.154-1.677c0.123-1.109,0.259-1.24,1.461-1.402
			c0.446-0.059,0.896-0.085,1.344-0.131c0.548-0.055,1.202-0.328,1.62-0.122c0.712,0.348,0.347,1.2,0.437,1.841
			c0.032,0.222,0.064,0.445,0.12,0.662c0.169,0.661,0.813,1.183,1.467,1.183c0.636,0,1.079-0.348,1.273-0.913
			c0.216-0.629,0.334-1.292,0.482-1.944c0.204-0.884,0.448-1.129,1.329-1.179c0.785-0.043,1.573-0.053,2.36-0.039
			c0.611,0.01,0.926,0.423,0.756,1.145c-0.24,1.024-0.392,1.991,0.412,2.852c0.408,0.436,0.937,0.797,1.476,0.57
			c0.466-0.196,1.001-0.649,1.139-1.102c0.221-0.73,0.137-1.553,0.189-2.336c0.072-1.133,0.498-1.633,1.624-1.748
			c0.892-0.093,1.795-0.093,2.693-0.103c0.644-0.008,1.015,0.342,1.174,0.973c0.111,0.434,0.274,0.858,0.461,1.268
			c0.246,0.542,1.08,0.649,1.381,0.17c0.414-0.66,0.706-1.412,1.196-2.005c0.225-0.27,0.8-0.338,1.214-0.338
			c0.487,0,0.765,0.348,0.85,0.861c0.126,0.769,0.224,1.557,0.482,2.286c0.192,0.544,0.732,0.829,1.342,0.858
			c0.641,0.028,1.422-0.479,1.534-1.094c0.121-0.654,0.135-1.332,0.162-2.001c0.021-0.519,0.237-0.852,0.767-0.892
			c0.671-0.05,1.35-0.016,2.013-0.103c0.62-0.077,1.144-0.789,1.187-1.466C87.123,55.895,86.701,55.109,86.088,54.967z
			 M72.875,70.919c-2.699,0.012-5.396,0.101-8.092,0.228c-1.453,0.069-2.898,0.388-4.352,0.417
			c-4.163,0.083-8.329,0.107-12.493,0.079c-0.989-0.008-1.989-0.276-2.963-0.508c-1.644-0.393-3.249-0.692-4.981-0.384
			c-1.651,0.295-3.361,0.263-4.939,0.366c-1.119-0.119-2.124-0.301-3.128-0.309c-0.525-0.004-1.095,0.216-1.569,0.473
			c-0.689,0.374-0.71,1.649-0.063,2.015c1.181,0.665,2.387,1.262,3.807,1.19c1.911-0.097,3.821-0.209,5.733-0.237
			c1.341-0.021,2.767-0.182,4.008,0.2c1.663,0.514,3.305,0.615,4.989,0.604c4.051-0.033,8.103-0.081,12.155-0.138
			c0.787-0.012,1.596,0.021,2.355-0.146c2.445-0.536,4.912-0.544,7.391-0.482c0.783,0.02,1.576-0.01,2.349-0.125
			c0.581-0.087,0.986-0.52,1.193-1.081C74.654,72.04,73.992,70.913,72.875,70.919z M70.77,80.162
			c-0.293-0.154-0.613-0.338-0.928-0.351c-3.251-0.126-6.515-0.312-9.693,0.629c-1.196,0.353-2.339,0.669-3.622,0.347
			c-0.847-0.214-1.768-0.16-2.657-0.168c-3.36-0.032-6.727-0.487-10.073,0.306c-0.845,0.198-1.863,0.26-2.661-0.018
			c-3.405-1.185-6.658,0.109-9.966,0.441c-0.458,0.045-0.866,0.457-0.792,0.926c0.063,0.393,0.349,0.867,0.679,1.067
			c0.456,0.276,1.042,0.429,1.582,0.459c1.12,0.065,2.248,0.047,3.37,0.012c1.456-0.044,2.853-0.048,4.315,0.399
			c1.231,0.38,2.713,0.376,3.984,0.095c1.787-0.396,3.558-0.448,5.351-0.457c1.373-0.008,2.695-0.191,3.881-0.929
			c0.828-0.515,1.605-0.623,2.523-0.127c0.565,0.305,1.285,0.449,1.934,0.447c2.126-0.012,4.25-0.121,6.375-0.194
			c0.002,0.026,0.003,0.056,0.004,0.083c1.574-0.055,3.146-0.108,4.719-0.164c0.829-0.031,1.519-0.326,2.018-1.026
			C71.476,81.432,71.316,80.448,70.77,80.162z M69.363,87.898c-0.216-0.058-0.442-0.117-0.661-0.109
			c-1.571,0.06-3.191-0.089-4.697,0.257c-2.893,0.663-5.81,0.465-8.844,0.649c-0.66-0.044-1.443-0.125-2.227-0.143
			c-1.236-0.028-2.474-0.067-3.703,0.012c-0.524,0.033-1.071,0.287-1.531,0.567c-0.229,0.139-0.413,0.569-0.394,0.851
			c0.021,0.278,0.269,0.668,0.515,0.771c0.5,0.209,1.063,0.308,1.609,0.365c1.895,0.198,3.791,0.396,5.69,0.524
			c1.455,0.099,2.931,0.243,4.37,0.101c2.115-0.208,4.21-0.631,6.306-1.013c0.989-0.18,1.96-0.467,2.935-0.72
			c0.323-0.085,0.692-0.145,0.938-0.342c0.237-0.188,0.472-0.538,0.48-0.823C70.163,88.379,69.842,88.03,69.363,87.898z
			 M63.761,39.358c3.162,1.766,6.566-0.212,6.553-4.264c-0.069-0.284-0.121-1.094-0.455-1.766c-0.756-1.509-2.155-1.681-3.696-1.653
			c-3.011,0.054-5.302,3.116-3.533,6.527C62.869,38.664,63.306,39.104,63.761,39.358z M44.884,88.754
			c-0.413-0.136-0.86-0.226-1.294-0.233c-1.674-0.025-3.347-0.01-5.018-0.01v0.024c-1.673,0-3.346-0.017-5.019,0.01
			c-0.666,0.012-1.337,0.083-1.99,0.211c-0.801,0.154-1.308,0.864-1.316,1.705c-0.009,0.849,0.515,1.366,1.479,1.455
			c0.222,0.021,0.446,0.03,0.668,0.03c3.124,0.004,6.247,0.016,9.371,0c0.666-0.004,1.37-0.002,1.986-0.21
			c0.6-0.204,1.167-0.609,1.643-1.046C45.946,90.188,45.609,88.989,44.884,88.754z M37.142,40.161
			c1.128-0.72,2.276-1.43,3.316-2.267c0.492-0.396,0.811-1.046,1.107-1.633c0.322-0.639-0.531-1.705-1.228-1.607
			c-0.217,0.043-0.47,0.029-0.646,0.14c-1.229,0.764-2.464,1.52-3.645,2.355c-0.336,0.237-0.573,0.698-0.721,1.104
			c-0.263,0.716,0.105,1.299,0.59,1.796C36.279,40.422,36.75,40.41,37.142,40.161z M29.233,48.517
			c0.388,0.122,0.956,0.166,1.261-0.032c1.526-0.999,2.666-2.346,3.212-4.125c0.062-0.202,0.009-0.441,0.009-1.08
			c-0.014-0.373-0.947-0.911-1.728-0.585c-1.758,0.735-2.867,2.068-3.502,3.83c-0.072,0.2-0.075,0.44-0.062,0.659
			C28.454,47.771,28.643,48.334,29.233,48.517z M47.622,35.643c1.207-0.243,2.398-0.585,3.284-1.495
			c0.28-0.288,0.353-0.775,0.51-1.146c-0.186-0.386-0.259-0.744-0.478-0.961c-1.412-1.397-4.47-0.617-4.953,1.271
			c-0.102,0.403-0.044,0.888,0.07,1.299C46.216,35.201,47.08,35.753,47.622,35.643z M74.15,45.22
			c0.189,0.091,0.432,0.079,0.65,0.106c0.826,0.097,1.532-0.521,1.537-1.343c-0.015-0.221,0.023-0.459-0.052-0.656
			c-0.532-1.435-1.545-2.406-3.004-2.844c-0.525-0.158-1.1-0.073-1.521,0.396c-0.389,0.432-0.518,1.335-0.212,1.865
			C72.169,43.821,73.026,44.67,74.15,45.22z M80.361,77.251c0.489,0.216,1.051,0.268,1.728,0.428
			c0.404-0.15,1.036-0.202,1.353-0.544c0.622-0.669,0.487-2.437-0.144-3.081c-0.57-0.58-1.224-0.27-1.845-0.046
			c-0.415,0.15-0.858,0.255-1.232,0.475c-0.52,0.303-0.688,0.841-0.668,1.422C79.576,76.49,79.828,77.016,80.361,77.251z
			 M56.933,34.448c0.843,0.257,1.707,0.498,2.58,0.593c0.36,0.038,0.882-0.227,1.117-0.523c0.368-0.463,0.262-1.096-0.089-1.551
			c-0.724-0.947-1.738-1.337-2.925-1.281c-0.11,0.012-0.22,0.027-0.332,0.036c-0.735,0.064-1.295,0.561-1.366,1.21
			C55.843,33.634,56.186,34.219,56.933,34.448z M81.547,81.916c-0.572,0.297-1.105,0.766-1.494,1.279
			c-0.212,0.283-0.245,0.906-0.077,1.229c0.237,0.448,0.739,0.757,1.104,1.104c0.891-0.233,1.675-0.343,2.367-0.657
			c0.326-0.148,0.639-0.676,0.675-1.056C84.269,82.199,82.917,81.202,81.547,81.916z M79.704,48.643
			c0.333,0.202,0.916,0.364,1.192,0.208c0.416-0.235,0.664-0.77,0.855-1.013c0.01-1.313-0.409-2.186-1.124-2.931
			c-0.409-0.425-1.36-0.538-1.842-0.191c-0.496,0.357-0.619,0.899-0.558,1.469C78.341,47.225,78.806,48.097,79.704,48.643z
			 M65.855,47.039c1.116-0.556,1.388-2.157,0.558-3.129c-0.134-0.158-0.374-0.228-0.564-0.338c-0.212,0.042-0.444,0.042-0.629,0.135
			c-1.349,0.684-1.501,2.343-0.272,3.245C65.164,47.112,65.617,47.157,65.855,47.039z M66.1,54.067
			c0.335-0.258,0.781-0.445,0.984-0.781c0.583-0.965,0.268-2.29-0.696-2.951c-0.185-0.128-0.699-0.043-0.879,0.133
			c-0.884,0.858-1.023,2.103-0.354,3.01C65.331,53.717,65.691,53.821,66.1,54.067z"/>
	</g>
</g>
<g>
</g>
<g>
</g>
<g>
</g>
<g>
</g>
<g>
</g>
<g>
</g>
<g>
</g>
<g>
</g>
<g>
</g>
<g>
</g>
<g>
</g>
<g>
</g>
<g>
</g>
<g>
</g>
<g>
</g>
</svg>
